<?xml version="1.0" standalone="no"?>
<!DOCTYPE svg PUBLIC "-//W3C//DTD SVG 20010904//EN"
 "http://www.w3.org/TR/2001/REC-SVG-20010904/DTD/svg10.dtd">
<svg version="1.0" xmlns="http://www.w3.org/2000/svg"
 width="192.000000pt" height="192.000000pt" viewBox="0 0 192.000000 192.000000"
 preserveAspectRatio="xMidYMid meet">
<metadata>
Created by potrace 1.14, written by Peter Selinger 2001-2017
</metadata>
<g transform="translate(0.000000,192.000000) scale(0.100000,-0.100000)"
fill="#000000" stroke="none">
<path d="M421 1884 c-104 -28 -165 -86 -203 -191 -26 -73 -38 -356 -18 -455
24 -126 95 -221 187 -252 69 -24 182 -31 253 -16 115 24 187 90 227 209 20 59
22 86 22 247 0 149 -3 192 -19 244 -34 112 -90 174 -190 209 -64 23 -186 25
-259 5z m189 -181 c35 -24 48 -43 60 -86 15 -51 15 -322 2 -372 -22 -78 -85
-116 -167 -101 -45 9 -80 47 -94 102 -14 56 -14 313 0 370 16 64 65 104 127
104 28 0 57 -7 72 -17z"/>
<path d="M1037 1882 c-16 -3 -17 -41 -17 -453 l0 -449 105 0 105 0 0 189 0
189 40 -2 c22 -1 44 -6 49 -11 5 -6 44 -90 87 -187 l79 -178 113 0 c61 0 112
2 112 5 0 2 -49 104 -110 225 -60 122 -110 227 -110 234 0 7 43 107 95 222 52
114 90 211 86 214 -8 4 -112 5 -196 1 -16 -1 -27 -20 -54 -89 -18 -48 -39
-100 -46 -117 -7 -16 -23 -56 -35 -87 l-22 -58 -44 0 -44 0 0 175 c0 175 0
175 -22 176 -83 3 -157 4 -171 1z"/>
<path d="M263 940 c-17 -5 -18 -29 -17 -440 1 -239 2 -441 3 -448 1 -10 26
-12 103 -10 l103 3 0 155 0 155 55 3 c109 7 153 -24 165 -115 3 -21 11 -74 18
-118 l12 -80 107 -3 108 -3 -10 27 c-11 28 -15 54 -25 149 -12 118 -38 178
-93 214 l-34 23 28 15 c73 37 106 98 109 198 5 158 -79 257 -233 272 -73 7
-376 9 -399 3z m379 -181 c64 -34 61 -185 -4 -220 -12 -7 -58 -13 -103 -14
l-81 -2 0 123 c0 101 3 124 15 126 30 6 156 -4 173 -13z"/>
<path d="M1192 905 c-5 -22 -37 -137 -71 -255 -34 -118 -84 -296 -112 -395
-27 -99 -52 -188 -55 -197 -5 -16 4 -18 103 -18 l108 0 19 85 c22 98 -3 86
186 88 l105 0 20 -84 21 -84 107 -3 c65 -2 107 1 107 7 0 8 -228 824 -245 879
-3 6 -15 12 -27 13 -13 0 -75 1 -139 2 l-117 2 -10 -40z m155 -157 c0 -7 14
-68 31 -135 65 -252 68 -236 -41 -237 -48 -1 -87 3 -87 8 0 4 7 36 16 70 9 33
17 68 19 76 23 112 53 230 58 230 2 0 4 -6 4 -12z"/>
</g>
</svg>
